<svg width="28" height="19" viewBox="0 0 28 19" fill="none" xmlns="http://www.w3.org/2000/svg">
<path d="M24.575 17.3438C25.4449 17.3438 26.15 16.6997 26.15 15.9053C26.15 15.1108 25.4449 14.4668 24.575 14.4668C23.7052 14.4668 23 15.1108 23 15.9053C23 16.6997 23.7052 17.3438 24.575 17.3438Z" stroke="#DB4437" stroke-width="3" stroke-linecap="round" stroke-linejoin="round"/>
<path d="M24.575 4.87695C25.4449 4.87695 26.15 4.23293 26.15 3.43848C26.15 2.64403 25.4449 2 24.575 2C23.7052 2 23 2.64403 23 3.43848C23 4.23293 23.7052 4.87695 24.575 4.87695Z" stroke="#F4B400" stroke-width="3" stroke-linecap="round" stroke-linejoin="round"/>
<path d="M14.0751 17.3438C14.945 17.3438 15.6501 16.6997 15.6501 15.9053C15.6501 15.1108 14.945 14.4668 14.0751 14.4668C13.2052 14.4668 12.5 15.1108 12.5 15.9053C12.5 16.6997 13.2052 17.3438 14.0751 17.3438Z" stroke="#0F9D58" stroke-width="3" stroke-linecap="round" stroke-linejoin="round"/>
<path d="M14.0751 4.87695C14.945 4.87695 15.6501 4.23293 15.6501 3.43848C15.6501 2.64403 14.945 2 14.0751 2C13.2052 2 12.5 2.64403 12.5 3.43848C12.5 4.23293 13.2052 4.87695 14.0751 4.87695Z" stroke="#DB4437" stroke-width="3" stroke-linecap="round" stroke-linejoin="round"/>
<path d="M3.57495 17.3438C4.44477 17.3438 5.1499 16.6997 5.1499 15.9053C5.1499 15.1108 4.44477 14.4668 3.57495 14.4668C2.70513 14.4668 2 15.1108 2 15.9053C2 16.6997 2.70513 17.3438 3.57495 17.3438Z" stroke="#4285F4" stroke-width="3" stroke-linecap="round" stroke-linejoin="round"/>
<path d="M3.57495 4.87695C4.44477 4.87695 5.1499 4.23293 5.1499 3.43848C5.1499 2.64403 4.44477 2 3.57495 2C2.70513 2 2 2.64403 2 3.43848C2 4.23293 2.70513 4.87695 3.57495 4.87695Z" stroke="#4285F4" stroke-width="3" stroke-linecap="round" stroke-linejoin="round"/>
</svg>
